<svg id="Layer_1" viewBox="0 0 24 24" xmlns="http://www.w3.org/2000/svg" data-name="Layer 1"><path d="m22.319 13.915c.112-1.062.169-2.124.169-3.16 0-4.744-1.15-7.296-1.199-7.403-.062-.136-.183-.237-.328-.275-.169-.044-4.195-1.077-8.965-1.077s-8.795 1.033-8.965 1.077c-.147.038-.268.141-.331.279-.048.108-1.188 2.696-1.188 7.399 0 1.039.057 2.102.167 3.163-.201.361-.68 1.347-.68 2.58 0 1.542.737 2.681.768 2.729.081.123.212.204.358.222.015.002.518.062 1.374.142v1.909c0 .276.224.5.5.5s.5-.224.5-.5v-1.822c1.84.151 4.564.322 7.5.322s5.658-.171 7.5-.322v1.822c0 .276.224.5.5.5s.5-.224.5-.5v-1.909c.855-.08 1.359-.14 1.374-.141.147-.018.278-.1.359-.224.031-.048.767-1.198.767-2.727 0-1.244-.479-2.225-.681-2.583zm-18.793-9.929c.943-.221 4.493-.986 8.47-.986s7.534.766 8.472.986c.262.692 1.021 3.023 1.021 6.769 0 .887-.043 1.794-.128 2.704-.625-.101-1.748-.269-3.185-.422.125-.416.187-.898.187-1.457 0-3.104-1.957-3.463-3.428-3.463-1.013 0-2.257.17-2.933 1.29-.676-1.12-1.92-1.29-2.933-1.29-1.472 0-3.428.359-3.428 3.463 0 .56.061 1.042.183 1.457-1.436.153-2.559.32-3.183.421-.084-.908-.127-1.816-.127-2.704 0-3.715.753-6.067 1.014-6.769zm3.317 8.952c-.136-.353-.204-.808-.204-1.357 0-2.051.929-2.463 2.428-2.463 1.538 0 2.429.403 2.429 2.463 0 .431-.044.806-.13 1.117-1.627.021-3.174.118-4.522.24zm5.788-.24c-.084-.311-.126-.685-.126-1.117 0-2.051.929-2.463 2.429-2.463 1.538 0 2.428.403 2.428 2.463 0 .548-.07 1.003-.21 1.356-1.347-.122-2.893-.218-4.521-.239zm8.873 5.786c-1.021.112-5.018.516-9.503.516s-8.487-.404-9.504-.516c-.174-.338-.496-1.083-.496-1.986 0-.911.333-1.67.505-2.003.979-.167 4.991-.801 9.495-.801s8.524.635 9.497.801c.172.327.503 1.076.503 2.003 0 .896-.322 1.646-.497 1.986z"/></svg>