<svg id="Layer_1" viewBox="0 0 24 24" xmlns="http://www.w3.org/2000/svg" data-name="Layer 1"><path d="m19.777 3.208c-2.077-2.068-4.839-3.208-7.777-3.208s-5.7 1.14-7.777 3.208c-2.079 2.069-3.223 4.82-3.223 7.747s1.144 5.677 3.237 7.76l4.151 3.819c.971.945 2.253 1.466 3.611 1.466s2.641-.521 3.602-1.456l4.176-3.843c2.079-2.069 3.223-4.82 3.223-7.746s-1.145-5.678-3.223-7.747zm-.691 14.771-4.172 3.839c-1.566 1.525-4.251 1.536-5.839-.01l-4.147-3.815c-1.888-1.88-2.928-4.379-2.928-7.037s1.04-5.158 2.928-7.038c1.888-1.881 4.4-2.917 7.072-2.917s5.183 1.036 7.071 2.917c1.888 1.88 2.928 4.379 2.928 7.038s-1.04 5.157-2.914 7.023zm-6.586-12.979h-2.5c-.827 0-1.5.673-1.5 1.5v10c0 .276.224.5.5.5s.5-.224.5-.5v-3.5h3c2.206 0 4-1.794 4-4s-1.794-4-4-4zm0 7h-3v-5.5c0-.275.224-.5.5-.5h2.5c1.654 0 3 1.346 3 3s-1.346 3-3 3z"/></svg>